<svg xmlns="http://www.w3.org/2000/svg" viewBox="0 0 349.72 473.31"><defs><style>.cls-1{fill:#fff;stroke:#231f20;stroke-miterlimit:10;}</style></defs><g id="Layer_2" data-name="Layer 2"><g id="Layer_1-2" data-name="Layer 1"><path class="cls-1" d="M171.38,133.2c-5.13-6.83-11.26-17.37-11.13-30.2.28-26,26.11-36.77,28.42-63.22.79-9.08-1-22.39-13.68-39.48,2.95,5,6.81,13.26,5.63,23-.42,3.41-1.61,8.22-12.88,23.87C153.86,66.4,149.45,67.74,145.91,78c-1.19,3.46-4.33,12.94-1.89,24C148.49,122.2,168.16,131.71,171.38,133.2Z"/><path class="cls-1" d="M194.6,73.72a41.75,41.75,0,0,0,1.11,16.79c2.69,9.48,7.42,12.36,9.08,19.08,1.32,5.31.88,13.68-8.51,26.19a41,41,0,0,0,.3-8c-.84-13.5-8.17-19.24-10-28.39C185.51,93.87,186.11,85.5,194.6,73.72Z"/><path class="cls-1" d="M.67,282.88c11.8,20.62,25.08,31.5,34.64,37.55,28.08,17.77,51,11,76.69,30.37,13.94,10.52,21.8,23.51,26.08,32.14a111.45,111.45,0,0,0-25.35-14.51C93,360.37,83.66,363.39,63,357c-10.5-3.24-26.3-8.12-39.29-20.52C5.71,319.33,1.65,295.89.67,282.88Z"/><path class="cls-1" d="M253.12,121.91a96.11,96.11,0,0,1,29,33.74c4.05,7.93,15.3,30.77,8.78,58.07a79.37,79.37,0,0,1-17.81,33.8c-10.19,11.4-17.38,12.34-34.32,28.13-2,1.86-12.34,11.5-18.06,19.36-16.55,22.68-12.43,54.86-7.34,75.4,2-9,7-25,20.95-37.11,9.56-8.35,20.29-12.27,25.26-14,11.08-3.95,13.31-2.19,28.51-7,8.14-2.58,15.34-4.92,23.74-10.22a79.75,79.75,0,0,0,17-14.45,81.14,81.14,0,0,0,17.5-33.36c7.63-28.27-1.92-52.75-5.55-61a76.72,76.72,0,0,1-2.72,37.11c-13.61,40.32-57.7,52.73-62.44,54,4-2.9,39.36-29.66,39.5-74.77C315.24,171.85,290.64,136.79,253.12,121.91Z"/><path class="cls-1" d="M203.36,399.73a142.3,142.3,0,0,0-1.11-34.5c-3.35-21.47-9.32-26.83-10.94-47.13-1.22-15.29.92-27.81,2.23-35.41,2.37-13.83,4.09-13.28,8.8-35.42,2.57-12.08,4.2-22.29,4.17-34.46,0-9.25-1-13.92-1.54-16.19a63.2,63.2,0,0,0-10-21.74c-5.06-7-7.91-7.72-12.29-15.19a54.93,54.93,0,0,1-5.08-11.52,48.4,48.4,0,0,1-4.5,11.42c-5.66,10.25-13.3,10.43-19.1,20.84a44.6,44.6,0,0,0-4.45,12.19c-1.67,7.78-.49,12.25-3.55,18.39a24.55,24.55,0,0,1-4.94,6.68,43.52,43.52,0,0,0,10.42-4c13.91-7.52,16.06-18.84,25.45-19.41,6-.37,10.25,3.93,10.58,4.28,5.51,5.73,3.63,15.15,2.43,21.21-.4,2-2.08,9.84-10,22.26-6.82,10.74-10.28,12.3-18.49,24.19a174.74,174.74,0,0,0-10.35,17.23c-3.73,7.37-10.85,25.06-6.48,55.31-2.59-14.3-8.45-34.88-23.62-53.83-17.41-21.75-31.13-21.38-44.9-43.09-4.42-7-18.57-31.54-12.94-62.84,6.14-34.15,31.59-52.78,37.39-56.81-36.54,14.4-61,47.53-62.13,83.78-1.19,39.18,25.47,65,30,69.29-4.12-1.17-38.72-11.59-50.87-45.13a70.21,70.21,0,0,1-2.22-38.95A79.88,79.88,0,0,0,4.92,224,81,81,0,0,0,17.7,274.75c9.24,14.18,20.59,21.6,26.79,25.56C61.1,310.94,69.41,309.26,87,316c30.21,11.54,48.06,32.6,64.21,51.65,14.09,16.63,20.48,29.25,22.93,42.62,2.69,14.62-.83,22-2.42,24.74-4.79,8.39-12.85,11.9-15.87,13.16-18.31,7.66-38.59-1.72-49.55-7-41.84-20-67.53-61.7-78-80.81C50.69,432.89,120.69,479.44,193.31,472c66.68-6.8,122.59-57.77,136.52-125.68-3.94,12-21.58,61.12-74.07,91.36-48.27,27.81-95.13,21.87-108.53,19.69,5.6-.57,19-2.76,29.71-13.36C191,430.13,191,411.1,191.05,406c0-26.71-17.53-34.7-22.13-65.3a94.82,94.82,0,0,1,1.46-34.92,95.32,95.32,0,0,0,2.8,16.46c4.25,16.1,11.31,25.26,16.68,35C194.82,366.17,200.73,379.94,203.36,399.73Z"/></g></g></svg>